<svg width="256" height="256" viewBox="0 0 256 256" fill="none" xmlns="http://www.w3.org/2000/svg">
  <path d="M42.43 65.59C48.88 47.33 63.85 32.22 82.2 25.54C115.63 13.22 153.27 21.02 179.88 43.1C211.7 68.9 220.8 114.33 203.88 152.09L197.6 165.26C193.39 174.2 186.13 181.79 177.2 186.4L132.82 211.85C124.97 215.93 115.84 216.51 107.41 213.48L51.84 194.2C41.97 190.69 34.02 182.2 30.14 172.13L25.31 159.26C11.53 122.61 17.06 81.69 42.43 65.59Z" fill="#4f46e5"/>
  <circle cx="130" cy="115" r="50" stroke="white" stroke-width="16"/>
  <path d="M165 150L195 180" stroke="white" stroke-width="16" stroke-linecap="round"/>
</svg>
